<svg width="825" height="530" viewBox="0 0 825 530" fill="none" xmlns="http://www.w3.org/2000/svg">
<g clip-path="url(#clip0_42_33)">
<mask id="mask0_42_33" style="mask-type:luminance" maskUnits="userSpaceOnUse" x="0" y="0" width="825" height="530">
<path d="M825 0H0V530H825V0Z" fill="white"/>
</mask>
<g mask="url(#mask0_42_33)">
<path d="M349 0V530L284.25 529.85C214.74 529.69 194.15 529.05 176.64 526.51C128.61 519.55 87.5799 499.99 58.1299 470.03C26.8299 438.18 9.19989 399.85 2.31989 348.67C0.879885 337.92 0.639877 316.91 0.279877 168.25L-0.120117 0H127.95L128.25 166.75C128.52 320.15 128.68 334.12 130.27 341.3C135.28 364.04 142.82 378.24 156.55 390.83C163.13 396.86 177.92 405.16 184.5 406.53C186.15 406.87 188.4 407.53 189.5 407.99C197.45 411.3 227.79 412.14 242.05 409.43C278.4 402.54 300.63 380.05 308.72 342C311.73 327.87 311.78 324.7 311.91 134.25L312 0H349Z" fill="black"/>
<path d="M349 -2.24113e-05H312V-0.150024L442.75 0.299981C552.54 0.679981 575.74 1.00998 587.5 2.31998C676.39 12.25 745.13 52.79 786.22 119.5C821.91 177.44 833.62 253.03 818.42 327.42C806.51 385.71 773.55 439.86 729.92 472.84C684.87 506.88 633.4 524.89 569.52 528.98C558.66 529.67 446.54 529.95 349 529.82V-2.24113e-05ZM478 110.83V418.19L521.75 417.71C568.53 417.19 574.97 416.59 594.06 411.03C647.85 395.35 681.44 356.78 690.93 299.8C694.38 279.06 694 247.65 690.02 225.39C684.57 194.91 671.02 168.77 650.47 149.13C630.27 129.82 610.53 120.35 575 112.92C571.55 112.2 552.48 111.6 523.75 111.3L478 110.83ZM311.83 217.69C311.79 246.22 311.72 267.53 311.61 283.66C311.23 280.71 310.46 282.07 309.23 287.25C305.93 301.17 295.91 313.28 282.33 319.76C274.58 323.46 274.38 323.5 262 323.5H249.5L241.68 319.6C231.06 314.29 223.3 306.55 218.39 296.34C214.93 289.15 214.6 287.67 214.21 278.01C213.85 269.13 214.12 266.51 215.95 261.11C218.72 252.93 223.39 245.72 229.71 239.84C235.78 234.2 240.49 231.7 250.13 229.03C259.41 226.46 265.6 226.47 275.02 229.05C284.35 231.62 291.93 236.08 297.58 242.32C302.62 247.9 308.5 259.06 309.49 264.94C309.87 267.17 310.59 269 311.09 269C311.41 269 311.67 249.96 311.83 217.69ZM225.73 410.95C211.46 411.4 195.04 410.3 189.5 407.99C188.4 407.53 186.15 406.87 184.5 406.53C181.8 405.97 177.73 404.25 173.41 401.99C178.18 404.43 182.69 406.21 185.58 406.58L189.5 407.1L185.82 405.06C178.08 400.78 170.2 392.21 165.77 383.27C161.86 375.37 161.53 374.09 161.17 365.02C160.54 349.42 164.19 339.74 174.87 328.67C186.72 316.4 204.93 311.23 221.31 315.49C245.4 321.77 260.97 345.23 257.18 369.57C254.36 387.73 242.49 401.98 224.67 408.6L218.5 410.9L225.73 410.95ZM207.32 378.1C207.88 380.26 210 379.88 210 377.63C210 376.94 211.56 375.62 213.47 374.71C217.23 372.92 218.65 369.73 217.58 365.47C217.19 363.91 215.62 362.31 213.47 361.29C210.19 359.72 210 359.35 210 354.64V349.65L212.31 351.83C213.59 353.02 215.4 354 216.34 354C217.92 354 217.93 353.77 216.51 351.01C215.66 349.37 213.89 347.76 212.58 347.43C211.26 347.1 209.96 345.97 209.69 344.92C209.03 342.39 207 342.45 207 345C207 346.1 206.39 347 205.63 347C204.88 347 203.08 347.93 201.63 349.07C196.83 352.85 199.34 362 205.19 362C206.72 362 207 362.86 207 367.47C207 371.86 206.71 372.83 205.54 372.38C204.73 372.07 203.8 370.96 203.47 369.91C202.66 367.36 199 367.37 199 369.93C199 371.94 203.36 376 205.52 376C206.2 376 207.01 376.95 207.32 378.1ZM260 291.2C260 292.19 260.45 293 261 293C261.55 293 262 292.33 262 291.51C262 290.7 263.54 289.38 265.42 288.6C273.28 285.31 272.57 276.07 264.25 273.55C262.36 272.97 262 272.16 262 268.43C262 265.12 262.39 264 263.53 264C264.37 264 265.32 264.67 265.64 265.5C266.37 267.41 270 267.47 270 265.57C270 263.93 265.37 260 263.43 260C262.72 260 261.94 258.99 261.7 257.75L261.25 255.5L260.51 257.75C260.1 258.99 259.2 260 258.52 260C257.83 260 256.06 260.95 254.58 262.11C252.32 263.9 251.94 264.87 252.2 268.36C252.46 271.99 252.96 272.74 256.25 274.5C259.77 276.38 259.99 276.79 260 281.25C260 283.86 259.63 286 259.18 286C258.73 286 257.34 284.83 256.09 283.39C254.56 281.63 253.49 281.11 252.81 281.79C251.04 283.56 252.99 286.87 256.55 288.16C258.74 288.95 260 290.06 260 291.2ZM266.22 283.42C264.24 287.76 262 286.7 262 281.43C262 277.72 262.31 276.91 263.64 277.18C266.4 277.72 267.55 280.5 266.22 283.42ZM260 267.5C260 269.98 259.64 272 259.2 272C256.38 272 254.95 266.45 257.2 264.2C259.31 262.09 260 262.89 260 267.5ZM214 368.66C214 369.91 213.1 371.41 212 372C210.14 373 210 372.76 210 368.54C210 366.04 210.36 364 210.8 364C212.34 364 214 366.42 214 368.66ZM206.59 350.25C206.88 350.55 206.98 352.61 206.81 354.83C206.54 358.35 206.27 358.75 204.75 357.89C202.59 356.67 202.46 352.69 204.52 350.98C205.36 350.28 206.29 349.96 206.59 350.25ZM129.98 515.03C87.2501 499.84 53.5601 472.71 30.4901 434.5C18.6001 414.81 10.2001 392.05 5.08008 365.58C13.3701 408.45 30.3801 441.79 58.1301 470.03C77.5001 489.74 101.89 504.94 129.98 515.03ZM310.69 327.27C310.24 334.62 309.61 337.83 308.72 342C307.35 348.47 305.56 354.5 303.37 360.07C305.55 354.48 307.3 348.45 308.62 342C309.6 337.17 310.23 332.96 310.69 327.27ZM214.56 529.17C209.29 529.09 205.55 529.01 203.64 528.91C200.54 528.76 197.47 528.56 194.43 528.32C199.99 528.68 206.5 528.96 214.56 529.17ZM262.18 403.42C256.04 406.05 249.33 408.05 242.05 409.43C240.66 409.7 239.11 409.93 237.44 410.12C244.36 409.15 251.67 407.37 258.17 405C259.53 404.5 260.87 403.97 262.18 403.42Z" fill="#119661"/>
<path d="M-429 -117H936V651H-429V-117ZM311.83 217.69V217.7C311.67 249.96 311.41 269 311.09 269C310.59 269 309.87 267.17 309.49 264.94C308.5 259.06 302.62 247.9 297.58 242.32C291.93 236.08 284.35 231.62 275.02 229.05C265.6 226.47 259.41 226.46 250.13 229.03C240.49 231.7 235.78 234.2 229.71 239.84C223.39 245.72 218.72 252.93 215.95 261.11C214.12 266.51 213.85 269.13 214.21 278.01C214.6 287.67 214.93 289.15 218.39 296.34C223.3 306.55 231.06 314.29 241.68 319.6L249.5 323.5H262C274.38 323.5 274.58 323.46 282.33 319.76C295.91 313.28 305.93 301.17 309.23 287.25C310.46 282.07 311.23 280.71 311.61 283.66C311.44 306.96 311.17 319.45 310.69 327.27C310.23 332.96 309.6 337.17 308.62 342C307.3 348.45 305.55 354.48 303.37 360.07C295.24 380.69 281.51 395.15 262.18 403.42C260.87 403.97 259.53 404.5 258.17 405C251.67 407.37 244.36 409.15 237.44 410.12C233.95 410.54 229.93 410.81 225.73 410.95L218.5 410.9L224.67 408.6C242.49 401.98 254.36 387.73 257.18 369.57C260.97 345.23 245.4 321.77 221.31 315.49C204.93 311.23 186.72 316.4 174.87 328.67C164.19 339.74 160.54 349.42 161.17 365.02C161.53 374.09 161.86 375.37 165.77 383.27C170.2 392.21 178.08 400.78 185.82 405.06L189.5 407.1L185.58 406.58C182.69 406.21 178.18 404.43 173.41 401.99C167.18 398.74 160.44 394.39 156.55 390.83C142.82 378.24 135.28 364.04 130.27 341.3C128.68 334.12 128.52 320.15 128.25 166.75L127.95 0H-0.119995L0.279999 168.25C0.639999 316.91 0.880004 337.92 2.32001 348.67C2.91001 353.07 3.58 357.37 4.34 361.59C4.57 362.87 4.80001 364.14 5.04001 365.4C5.08001 365.61 5.13001 365.82 5.17001 366.03C5.14001 365.88 5.10999 365.73 5.07999 365.58C5.18999 366.14 5.3 366.71 5.41 367.28C5.33 366.86 5.25001 366.45 5.17001 366.03C10.29 392.31 18.66 414.93 30.49 434.5C53.56 472.71 87.24 499.83 129.97 515.02L129.98 515.03C144.59 520.27 160.21 524.13 176.64 526.51C181.89 527.27 187.41 527.86 194.43 528.32C197.47 528.56 200.54 528.76 203.64 528.91C205.55 529.01 209.29 529.09 214.56 529.17C230.32 529.6 252.03 529.77 284.25 529.85L349 530V529.82C446.54 529.95 558.66 529.67 569.52 528.98C633.4 524.89 684.87 506.88 729.92 472.84C773.55 439.86 806.51 385.71 818.42 327.42C833.62 253.03 821.91 177.44 786.22 119.5C745.13 52.79 676.39 12.25 587.5 2.32C575.74 1.01 552.54 0.680003 442.75 0.300003L312 -0.150002V0L311.91 134.25C311.88 167.39 311.86 194.85 311.83 217.69ZM478 110.83L523.75 111.3C552.48 111.6 571.55 112.2 575 112.92C610.53 120.35 630.27 129.82 650.47 149.13C671.02 168.77 684.57 194.91 690.02 225.39C694 247.65 694.38 279.06 690.93 299.8C681.44 356.78 647.85 395.35 594.06 411.03C574.97 416.59 568.53 417.19 521.75 417.71L478 418.19V110.83Z" fill="#FEFEFE"/>
<path d="M207.32 378.1C207.01 376.95 206.2 376 205.52 376C203.36 376 199 371.94 199 369.93C199 367.37 202.66 367.36 203.47 369.91C203.8 370.96 204.73 372.07 205.54 372.38C206.71 372.83 207 371.86 207 367.47C207 362.86 206.72 362 205.19 362C199.34 362 196.83 352.85 201.63 349.07C203.08 347.93 204.88 347 205.63 347C206.39 347 207 346.1 207 345C207 342.45 209.03 342.39 209.69 344.92C209.96 345.97 211.26 347.1 212.58 347.43C213.89 347.76 215.66 349.37 216.51 351.01C217.93 353.77 217.92 354 216.34 354C215.4 354 213.59 353.02 212.31 351.83L210 349.65V354.64C210 359.35 210.19 359.72 213.47 361.29C215.62 362.31 217.19 363.91 217.58 365.47C218.65 369.73 217.23 372.92 213.47 374.71C211.56 375.62 210 376.94 210 377.63C210 379.88 207.88 380.26 207.32 378.1ZM214 368.66C214 366.42 212.34 364 210.8 364C210.36 364 210 366.04 210 368.54C210 372.76 210.14 373 212 372C213.1 371.41 214 369.91 214 368.66ZM206.59 350.25C206.29 349.96 205.36 350.28 204.52 350.98C202.46 352.69 202.59 356.67 204.75 357.89C206.27 358.75 206.54 358.35 206.81 354.83C206.98 352.61 206.88 350.55 206.59 350.25ZM260 291.2C260 290.06 258.74 288.95 256.55 288.16C252.99 286.87 251.04 283.56 252.81 281.79C253.49 281.11 254.56 281.63 256.09 283.39C257.34 284.83 258.73 286 259.18 286C259.63 286 260 283.86 260 281.25C259.99 276.79 259.77 276.38 256.25 274.5C252.96 272.74 252.46 271.99 252.2 268.36C251.94 264.87 252.32 263.9 254.58 262.11C256.06 260.95 257.83 260 258.52 260C259.2 260 260.1 258.99 260.51 257.75L261.25 255.5L261.7 257.75C261.94 258.99 262.72 260 263.43 260C265.37 260 270 263.93 270 265.57C270 267.47 266.37 267.41 265.64 265.5C265.32 264.67 264.37 264 263.53 264C262.39 264 262 265.12 262 268.43C262 272.16 262.36 272.97 264.25 273.55C272.57 276.07 273.28 285.31 265.42 288.6C263.54 289.38 262 290.7 262 291.51C262 292.33 261.55 293 261 293C260.45 293 260 292.19 260 291.2ZM266.22 283.42C267.55 280.5 266.4 277.72 263.64 277.18C262.31 276.91 262 277.72 262 281.43C262 286.7 264.24 287.76 266.22 283.42ZM260 267.5C260 262.89 259.31 262.09 257.2 264.2C254.95 266.45 256.38 272 259.2 272C259.64 272 260 269.98 260 267.5Z" fill="#97D5C2"/>
</g>
</g>
<defs>
<clipPath id="clip0_42_33">
<rect width="825" height="530" fill="white"/>
</clipPath>
</defs>
</svg>
