<svg width="44" height="24" viewBox="0 0 44 24" fill="none" xmlns="http://www.w3.org/2000/svg">
<path d="M6.57875 0.535999V13.976C6.57875 15.32 6.90942 16.3547 7.57075 17.08C8.23208 17.8053 9.20275 18.168 10.4828 18.168C11.7628 18.168 12.7441 17.8053 13.4268 17.08C14.1094 16.3547 14.4508 15.32 14.4508 13.976V0.535999H19.9228V13.944C19.9228 15.9493 19.4961 17.6453 18.6428 19.032C17.7894 20.4187 16.6374 21.464 15.1868 22.168C13.7574 22.872 12.1574 23.224 10.3868 23.224C8.61608 23.224 7.02675 22.8827 5.61875 22.2C4.23208 21.496 3.13342 20.4507 2.32275 19.064C1.51208 17.656 1.10675 15.9493 1.10675 13.944V0.535999H6.57875Z" fill="black"/>
<path d="M31.775 0.535999C34.143 0.535999 36.2123 1.00533 37.983 1.944C39.7537 2.88267 41.119 4.20533 42.079 5.912C43.0603 7.59733 43.551 9.54933 43.551 11.768C43.551 13.9653 43.0603 15.9173 42.079 17.624C41.119 19.3307 39.743 20.6533 37.951 21.592C36.1803 22.5307 34.1217 23 31.775 23H23.359V0.535999H31.775ZM31.423 18.264C33.4923 18.264 35.103 17.6987 36.255 16.568C37.407 15.4373 37.983 13.8373 37.983 11.768C37.983 9.69867 37.407 8.088 36.255 6.936C35.103 5.784 33.4923 5.208 31.423 5.208H28.831V18.264H31.423Z" fill="#129661"/>
<rect x="19" y="21" width="2" height="2" fill="#A00000"/>
</svg>
